<svg width="32.000000" height="32.000000" viewBox="0 0 32 32" fill="none" xmlns="http://www.w3.org/2000/svg" xmlns:xlink="http://www.w3.org/1999/xlink">
	<desc>
			Created with Pixso.
	</desc>
	<defs>
		<clipPath id="clip80_6661">
			<rect id="User=On" rx="15.500000" width="31.000000" height="31.000000" transform="translate(0.500000 0.500000)" fill="white" fill-opacity="0"/>
		</clipPath>
	</defs>
	<rect id="User=On" rx="15.500000" width="31.000000" height="31.000000" transform="translate(0.500000 0.500000)" fill="#DB4444" fill-opacity="1.000000"/>
	<g clip-path="url(#clip80_6661)">
		<path id="Vector" d="M21 23L21 21.33C21 20.44 20.69 19.6 20.14 18.97C19.59 18.35 18.84 18 18.06 18L12.93 18C12.15 18 11.4 18.35 10.85 18.97C10.3 19.6 10 20.44 10 21.33L10 23" stroke="#FFFFFF" stroke-opacity="1.000000" stroke-width="1.500000" stroke-linejoin="round" stroke-linecap="round"/>
		<path id="Vector" d="M16 15C14.34 15 13 13.65 13 12C13 10.34 14.34 9 16 9C17.65 9 19 10.34 19 12C19 13.65 17.65 15 16 15Z" stroke="#FFFFFF" stroke-opacity="1.000000" stroke-width="1.500000" stroke-linejoin="round"/>
	</g>
</svg>
